<svg xmlns="http://www.w3.org/2000/svg" width="22" height="22" viewBox="0 0 22 22">
    <g fill="none" fill-rule="evenodd">
        <g fill="#1A1A1A">
            <g>
                <g>
                    <g>
                        <g>
                            <path d="M2.951 9.826c.13-.129.304-.201.486-.201h8.25c.38 0 .688-.308.688-.688V2.064c0-.38-.308-.688-.688-.688H2.063c-.38 0-.688.308-.688.688v9.34l1.576-1.577zM3.722 11l-2.548 2.549C.74 13.982 0 13.675 0 13.063v-11C0 .923.923 0 2.063 0h9.624c1.14 0 2.063.923 2.063 2.063v6.874c0 1.14-.923 2.063-2.063 2.063H3.723z" transform="translate(-1150.000000, -220.000000) translate(202.000000, 91.000000) translate(931.000000, 0.000000) translate(17.000000, 129.000000) translate(4.125000, 4.125000)"/>
                        </g>
                    </g>
                </g>
            </g>
        </g>
    </g>
</svg>
