<svg xmlns="http://www.w3.org/2000/svg" width="23" height="23" viewBox="0 0 23 23">
    <g fill="none" fill-rule="evenodd">
        <g fill="#1A1A1A">
            <g>
                <g>
                    <g>
                        <g>
                            <path d="M7.704 0c.186 0 .364.074.496.205l4.202 4.2c.131.132.205.31.205.496v8.4c0 1.16-.94 2.1-2.101 2.1H2.101c-1.16 0-2.101-.94-2.101-2.1v-11.2C0 .94.94 0 2.101 0h5.603zm-.29 1.4H2.101c-.387 0-.7.314-.7.7v11.202c0 .386.313.7.7.7h8.405c.387 0 .7-.314.7-.7V5.19L7.414 1.4z" transform="translate(-1149.000000, -189.000000) translate(202.000000, 91.000000) translate(931.000000, 0.000000) translate(16.000000, 98.000000) translate(4.902778, 3.500427)"/>
                            <path d="M8.405 4.2h3.502c.387 0 .7.314.7.7 0 .387-.313.7-.7.7H7.704c-.386 0-.7-.313-.7-.7V.7c0-.387.314-.7.7-.7.387 0 .7.313.7.7v3.5zM7.004 11.901c0 .387-.314.7-.7.7-.387 0-.7-.313-.7-.7v-4.2c0-.387.313-.7.7-.7.386 0 .7.313.7.7v4.2z" transform="translate(-1149.000000, -189.000000) translate(202.000000, 91.000000) translate(931.000000, 0.000000) translate(16.000000, 98.000000) translate(4.902778, 3.500427)"/>
                            <path d="M4.202 10.501c-.386 0-.7-.313-.7-.7 0-.386.314-.7.7-.7h4.203c.387 0 .7.314.7.7 0 .387-.313.7-.7.7H4.202z" transform="translate(-1149.000000, -189.000000) translate(202.000000, 91.000000) translate(931.000000, 0.000000) translate(16.000000, 98.000000) translate(4.902778, 3.500427)"/>
                        </g>
                    </g>
                </g>
            </g>
        </g>
    </g>
</svg>
