<svg xmlns="http://www.w3.org/2000/svg" width="22" height="23" viewBox="0 0 22 23">
    <g fill="none" fill-rule="evenodd">
        <g fill="#505050" fill-rule="nonzero">
            <g>
                <g>
                    <path d="M4.913 3.963c.174 0 .315-.141.315-.315 0-.174-.141-.314-.315-.314-.174 0-.315.14-.315.314s.14.315.315.315zm-2.52 0c.174 0 .315-.141.315-.315 0-.174-.141-.314-.315-.314-.174 0-.315.14-.315.314s.14.315.315.315zm1.26 0c.174 0 .315-.141.315-.315 0-.174-.141-.314-.315-.314-.174 0-.315.14-.315.314s.14.315.315.315zm-.07 3.333h2.855c.196 0 .364-.127.415-.316.052-.19-.026-.385-.196-.485l-.433-.256c.696-.689 1.088-1.63 1.082-2.614C7.293 1.655 5.679.029 3.706 0 1.663-.029 0 1.622 0 3.648c0 1.943 1.603 3.606 3.584 3.648zM1.532 1.498C2.11.926 2.88.618 3.697.63 5.33.653 6.665 2 6.676 3.63c.005.88-.372 1.716-1.037 2.294-.11.097-.169.242-.155.389.013.146.097.278.223.353l.004.002H3.593C1.955 6.634.63 5.286.63 3.647c0-.814.32-1.578.9-2.15zm19.658 19.35h-.315v-4.685c0-1.228-.726-2.342-1.854-2.842l-1.66-.71c.404-.128.77-.355 1.066-.67.448-.475.705-1.12.705-1.768 0-.596-.209-1.159-.603-1.628-.494-.585-.766-1.33-.766-2.095V4.943c0-1.32-.515-2.562-1.45-3.495C15.379.514 14.136 0 12.813 0c-2.728 0-4.948 2.217-4.948 4.943V6.4c0 .792-.312 1.549-.818 2.158-.638.767-.77 1.805-.346 2.707.315.67.883 1.152 1.564 1.355l-1.649.716c-1.156.486-1.904 1.61-1.904 2.863v3.704c0 .174.141.314.315.314.174 0 .315-.14.315-.314V16.2c0-.999.596-1.895 1.522-2.284l2.066-.898v1.894h-.95c-.267 0-.523.114-.702.313-.179.198-.265.465-.237.73l.52 4.893H.314c-.174 0-.315.14-.315.314s.141.315.315.315h20.874c.174 0 .315-.141.315-.315 0-.173-.141-.314-.315-.314zM18.046 8.95c.298.353.455.776.455 1.222 0 .49-.194.978-.534 1.337-.359.38-.852.59-1.388.59h-.41l-.54-.23c-.471-.202-.793-.635-.86-1.133.973-.522 1.635-1.548 1.635-2.726V5.646c.092.007.184.01.276.01.152 0 .303-.009.452-.026v.82c0 .914.325 1.802.914 2.5zm-5.156 4.966c-1.127.02-2.246-.123-3.33-.423v-.75l.09-.039h.002l.562-.245c.626-.271 1.068-.828 1.202-1.478.274.08.564.124.864.124h1.026c.3 0 .591-.044.867-.125.138.647.582 1.199 1.208 1.467l.6.257.045.02v.707c-1.02.303-2.073.467-3.136.485zm3.136.17v.825H9.559v-.767c1.021.268 2.07.403 3.125.403.072 0 .144 0 .217-.002 1.057-.018 2.107-.173 3.125-.459zm1.106-9.09c-.867.116-1.846-.116-2.52-.637-.137-.107-.335-.082-.441.056-.107.137-.082.334.056.44.44.342.972.582 1.547.703v1.713c-.151.344-.32.63-.7.944-.16.132-.335.241-.522.328-.153-.299-.464-.503-.822-.503h-.739c-.509 0-.923.413-.923.922 0 .508.414.922.923.922h.739c.428 0 .79-.293.893-.689.421-.16 1.108-.732 1.109-.732-.214 1.143-1.22 2.012-2.426 2.012H12.28c-1.361 0-2.468-1.106-2.468-2.465V5.58c1.07-.167 2.08-.529 3.007-1.076 1.412-.834 2.317-1.923 2.863-2.784.935.831 1.467 2.023 1.45 3.277zm-3.11 3.967c0 .161-.13.292-.292.292h-.739c-.161 0-.293-.131-.293-.293 0-.162.132-.293.293-.293h.739c.161 0 .292.13.293.292v.002zM8.495 4.943c0-2.379 1.937-4.314 4.319-4.314.854 0 1.67.246 2.368.705-.503.805-1.35 1.84-2.683 2.627-.914.54-1.917.886-2.981 1.026H8.494v-.044zM7.27 10.999c-.319-.68-.22-1.46.26-2.037.602-.724.965-1.62.964-2.56v-.786h.688V8.01c0 1.179.663 2.205 1.635 2.727-.06.502-.382.94-.854 1.145l-.5.217h-.457c-.75 0-1.416-.422-1.736-1.101zm10.966 4.89l-.526 4.959H8.193l-.526-4.959c-.01-.09.018-.176.079-.243.06-.068.143-.105.234-.105h9.943c.09 0 .173.037.234.105.06.067.089.153.08.243zm2.008 4.959h-1.9l.519-4.893c.028-.265-.059-.532-.238-.73-.179-.199-.435-.313-.702-.313h-1.267v-1.918l2.113.904c.896.397 1.475 1.286 1.475 2.265v4.685zm-7.293-3.849c-.66 0-1.197.536-1.197 1.195 0 .66.537 1.196 1.197 1.196s1.197-.536 1.197-1.196c0-.659-.537-1.195-1.197-1.195zm0 1.762c-.312 0-.567-.254-.567-.567 0-.312.255-.566.567-.566.313 0 .567.254.567.566 0 .313-.254.567-.567.567z" transform="translate(-17.000000, -623.000000) translate(0.000000, 107.000000) translate(17.000000, 516.347222)"/>
                </g>
            </g>
        </g>
    </g>
</svg>
