<svg xmlns="http://www.w3.org/2000/svg" width="16" height="16" viewBox="0 0 16 16">
    <g fill="none" fill-rule="evenodd">
        <g fill="#000">
            <g>
                <g>
                    <g>
                        <g>
                            <path d="M0 11.201c0-.386.35-.7.782-.7.432 0 .782.314.782.7v2.1c0 .387.35.7.782.7H13.29c.432 0 .782-.313.782-.7v-2.1c0-.386.35-.7.782-.7.432 0 .782.314.782.7v2.1c0 1.16-1.05 2.1-2.346 2.1H2.346c-1.296 0-2.346-.94-2.346-2.1v-2.1z" transform="translate(-1153.000000, -163.000000) translate(202.000000, 91.000000) translate(931.000000, 0.000000) translate(20.000000, 71.000000) translate(0.000000, 1.000000)"/>
                            <path d="M10.393 7.206c.305-.273.8-.273 1.106 0 .305.273.305.717 0 .99l-3.128 2.8c-.305.274-.8.274-1.105 0l-3.128-2.8c-.305-.273-.305-.717 0-.99.306-.273.8-.273 1.106 0L7.818 9.51l2.575-2.305z" transform="translate(-1153.000000, -163.000000) translate(202.000000, 91.000000) translate(931.000000, 0.000000) translate(20.000000, 71.000000) translate(0.000000, 1.000000)"/>
                            <path d="M7.037.7c0-.387.35-.7.781-.7.432 0 .782.313.782.7v9.801c0 .387-.35.7-.782.7-.431 0-.781-.313-.781-.7v-9.8z" transform="translate(-1153.000000, -163.000000) translate(202.000000, 91.000000) translate(931.000000, 0.000000) translate(20.000000, 71.000000) translate(0.000000, 1.000000)"/>
                        </g>
                    </g>
                </g>
            </g>
        </g>
    </g>
</svg>
