<svg xmlns="http://www.w3.org/2000/svg" width="20" height="20" viewBox="0 0 20 20">
    <g fill="none" fill-rule="evenodd">
        <g fill="#000" fill-rule="nonzero">
            <g>
                <g>
                    <g>
                        <g>
                            <path d="M19.2 2.4c-.001-1.17-.846-2.169-2-2.364V0h-.8v.036c-1.148.201-1.986 1.198-1.986 2.364s.838 2.163 1.986 2.364V19.2h.8V4.764c1.154-.195 1.999-1.194 2-2.364zM16.8 4c-.884 0-1.6-.716-1.6-1.6 0-.884.716-1.6 1.6-1.6.884 0 1.6.716 1.6 1.6 0 .424-.169.831-.469 1.131-.3.3-.707.469-1.131.469zM10 10.036V0h-.8v10.036c-1.148.201-1.986 1.198-1.986 2.364s.838 2.163 1.986 2.364V19.2h.8v-4.436c1.148-.201 1.986-1.198 1.986-2.364s-.838-2.163-1.986-2.364zM9.6 14c-.884 0-1.6-.716-1.6-1.6 0-.884.716-1.6 1.6-1.6.884 0 1.6.716 1.6 1.6 0 .884-.716 1.6-1.6 1.6zM2.8.036V0H2v.036C.852.237.014 1.234.014 2.4S.852 4.563 2 4.764V19.2h.8V4.764C3.948 4.563 4.786 3.566 4.786 2.4S3.948.237 2.8.036zM2.4 4C1.516 4 .8 3.284.8 2.4c0-.884.716-1.6 1.6-1.6.884 0 1.6.716 1.6 1.6 0 .424-.169.831-.469 1.131-.3.3-.707.469-1.131.469z" transform="translate(-260.000000, -104.000000) translate(202.000000, 91.000000) translate(0.000000, 1.000000) translate(42.000000, 0.000000) translate(16.000000, 12.000000)"/>
                        </g>
                    </g>
                </g>
            </g>
        </g>
    </g>
</svg>
