<svg xmlns="http://www.w3.org/2000/svg" width="18" height="24" viewBox="0 0 18 24">
    <g fill="none" fill-rule="evenodd">
        <g fill="#505050" fill-rule="nonzero">
            <g>
                <g>
                    <path d="M14.933 2.796V0H0v19.575h2.8v2.797h8.867c3.35 0 6.066-2.713 6.066-6.06V2.797h-2.8zm-14 15.847V.933H14v1.863H2.8v15.847H.933zm15.867-2.33c0 2.831-2.298 5.127-5.133 5.127H3.733V3.729H16.8v12.584z" transform="translate(-19.000000, -535.000000) translate(0.000000, 107.000000) translate(19.000000, 428.458333)"/>
                    <path d="M7 8.389H13.533000000000001V9.389H7zM7 12.118H13.533000000000001V13.118H7zM7 15.847H11.667V16.847H7z" transform="translate(-19.000000, -535.000000) translate(0.000000, 107.000000) translate(19.000000, 428.458333)"/>
                </g>
            </g>
        </g>
    </g>
</svg>
