<svg xmlns="http://www.w3.org/2000/svg" width="24" height="24" viewBox="0 0 24 24">
    <g fill="none" fill-rule="evenodd">
        <g fill="#0A7AFF" fill-rule="nonzero">
            <g>
                <g>
                    <g>
                        <g>
                            <g>
                                <g>
                                    <path d="M11.52 0C7.449.005 3.683 2.158 1.613 5.663c-2.07 3.506-2.136 7.844-.173 11.41L0 23.04l5.822-1.507c4.202 2.39 9.45 1.903 13.14-1.22 3.69-3.122 5.037-8.216 3.374-12.755C20.674 3.018 16.354 0 11.52 0zm0 22.08c-1.893 0-3.752-.509-5.38-1.474l-.174-.105-4.608 1.18 1.1-4.742-.101-.173C-.016 12.621.689 7.4 4.075 4.032 7.462.664 12.687-.01 16.82 2.385c4.131 2.396 6.14 7.266 4.9 11.878-1.241 4.613-5.423 7.818-10.199 7.817z" transform="translate(-1290.000000, -933.000000) translate(202.000000, 202.000000) translate(0.000000, 584.000000) translate(938.000000, 0.000000) translate(132.000000, 147.000000) translate(18.000000, 0.000000)"/>
                                </g>
                                <g>
                                    <path d="M2.832 9.239c1.371 1.639 3.021 2.929 4.905 3.842.717.34 1.676.743 2.744.812.067.003.13.006.196.006.717 0 1.293-.248 1.763-.758.003-.002.008-.008.011-.014.167-.202.357-.383.556-.576.136-.13.274-.265.406-.403.614-.64.614-1.452-.005-2.07l-1.731-1.732c-.294-.305-.645-.466-1.014-.466s-.723.161-1.025.463L8.607 9.374c-.095-.054-.193-.103-.286-.15-.115-.057-.221-.112-.316-.172-.94-.596-1.792-1.374-2.607-2.373-.412-.522-.688-.96-.881-1.406.27-.245.524-.5.769-.751.086-.09.176-.179.265-.268.31-.311.478-.671.478-1.037 0-.366-.164-.726-.478-1.037l-.858-.858c-.101-.1-.196-.199-.294-.3-.19-.195-.389-.397-.585-.578C3.518.153 3.17 0 2.8 0c-.365 0-.717.153-1.025.446L.698 1.524c-.392.391-.613.866-.66 1.416-.054.689.073 1.42.4 2.304.505 1.368 1.265 2.639 2.394 3.995zM.742 3.001c.034-.383.18-.703.457-.98L2.271.952c.167-.162.35-.245.53-.245.175 0 .354.083.518.25.193.179.374.366.57.565l.3.305.858.858c.178.179.27.36.27.539 0 .178-.092.36-.27.538l-.268.271c-.268.27-.518.527-.795.772l-.014.014c-.24.24-.202.467-.144.64.003.008.006.014.008.023.222.532.53 1.04 1.011 1.644.864 1.066 1.774 1.892 2.777 2.529.123.08.256.144.38.207.115.058.222.112.317.173l.031.017c.095.05.187.072.28.072.23 0 .38-.147.429-.196l1.077-1.077c.167-.167.348-.256.527-.256.219 0 .397.135.51.256l1.736 1.734c.346.346.343.72-.008 1.086-.121.13-.248.253-.383.383-.202.196-.412.397-.602.625-.332.357-.726.524-1.236.524-.049 0-.1-.003-.15-.006-.944-.06-1.823-.429-2.482-.743-1.792-.867-3.364-2.097-4.669-3.657-1.074-1.294-1.797-2.497-2.275-3.788C.808 4.216.695 3.58.741 3.001z" transform="translate(-1290.000000, -933.000000) translate(202.000000, 202.000000) translate(0.000000, 584.000000) translate(938.000000, 0.000000) translate(132.000000, 147.000000) translate(18.000000, 0.000000) translate(4.800000, 4.000000)"/>
                                </g>
                            </g>
                        </g>
                    </g>
                </g>
            </g>
        </g>
    </g>
</svg>
