<svg xmlns="http://www.w3.org/2000/svg" width="24" height="18" viewBox="0 0 24 18">
    <g fill="none" fill-rule="evenodd">
        <g fill="#0A7AFF" fill-rule="nonzero">
            <g>
                <g>
                    <g>
                        <g>
                            <path d="M0 0v12.96c0 2.386 1.934 4.32 4.32 4.32h14.4c2.386 0 4.32-1.934 4.32-4.32V0H0zm22.08 12.96c0 1.856-1.504 3.36-3.36 3.36H4.32c-1.856 0-3.36-1.504-3.36-3.36v-12h21.12v12z" transform="translate(-1227.000000, -352.000000) translate(202.000000, 202.000000) translate(938.000000, 0.000000) translate(83.000000, 150.000000) translate(4.000000, 0.000000)"/>
                            <path d="M20.39 3.682L19.747 2.971 11.52 10.392 3.341 2.981 2.698 3.691 11.52 11.688z" transform="translate(-1227.000000, -352.000000) translate(202.000000, 202.000000) translate(938.000000, 0.000000) translate(83.000000, 150.000000) translate(4.000000, 0.000000)"/>
                        </g>
                    </g>
                </g>
            </g>
        </g>
    </g>
</svg>
