<svg xmlns="http://www.w3.org/2000/svg" width="24" height="24" viewBox="0 0 24 24">
    <g fill="none" fill-rule="evenodd">
        <g fill="#999" fill-rule="nonzero">
            <g>
                <g>
                    <g>
                        <g>
                            <path d="M11.52 0C7.449.005 3.683 2.158 1.613 5.663c-2.07 3.506-2.136 7.844-.173 11.41L0 23.04l5.822-1.507c4.202 2.39 9.45 1.903 13.14-1.22 3.69-3.122 5.037-8.216 3.374-12.755C20.674 3.018 16.354 0 11.52 0zm0 22.08c-1.893 0-3.752-.509-5.38-1.474l-.174-.105-4.608 1.18 1.1-4.742-.101-.173C-.016 12.621.689 7.4 4.075 4.032 7.462.664 12.687-.01 16.82 2.385c4.131 2.396 6.14 7.266 4.9 11.878-1.241 4.613-5.423 7.818-10.199 7.817z" transform="translate(-1181.000000, -641.000000) translate(202.000000, 202.000000) translate(0.000000, 292.000000) translate(938.000000, 0.000000) translate(41.000000, 147.000000)"/>
                        </g>
                    </g>
                </g>
            </g>
        </g>
    </g>
</svg>
