<svg xmlns="http://www.w3.org/2000/svg" width="23" height="22" viewBox="0 0 23 22">
    <g fill="none" fill-rule="evenodd">
        <g fill="#505050" fill-rule="nonzero">
            <g>
                <g>
                    <path d="M5.6 0v17.245c0 1.287-1.045 2.33-2.333 2.33-1.289 0-2.334-1.043-2.334-2.33v-6.991c0-.515.418-.932.934-.932.515 0 .933.417.933.932v6.059h.933v-6.06c0-1.029-.835-1.864-1.866-1.864C.836 8.39 0 9.224 0 10.254v6.99c0 1.803 1.463 3.263 3.267 3.263h15.866c1.804 0 3.267-1.46 3.267-3.262V0H5.6zm15.867 17.245c0 1.287-1.045 2.33-2.334 2.33H5.55c.628-.613.983-1.453.984-2.33V.932h14.934v16.313z" transform="translate(-16.000000, -807.000000) translate(0.000000, 107.000000) translate(16.000000, 700.114899)"/>
                    <path d="M18.667 3.729H9.333v6.525h9.334V3.729zm-.934 5.593h-7.466V4.66h7.466v4.66zM9.333 12.118H18.666V13.118H9.333zM9.333 14.914H16.333V15.914H9.333z" transform="translate(-16.000000, -807.000000) translate(0.000000, 107.000000) translate(16.000000, 700.114899)"/>
                </g>
            </g>
        </g>
    </g>
</svg>
