<svg xmlns="http://www.w3.org/2000/svg" width="24" height="24" viewBox="0 0 24 24">
    <g fill="none" fill-rule="evenodd">
        <g fill="#0A7AFF" fill-rule="nonzero">
            <g>
                <g>
                    <g>
                        <g>
                            <path d="M18.01 14.549c-.622-.126-1.268-.05-1.844.216l-2.068.893c-1.33-.826-2.561-1.802-3.668-2.91-1.104-1.12-2.07-2.37-2.88-3.72l.677-1.862c.24-.565.302-1.189.178-1.79L7.027 0 0 1.013l.029.427c.344 5.602 2.71 10.89 6.657 14.88 4.031 4.057 9.437 6.454 15.15 6.72h.455l.749-7.315-5.03-1.176zm3.422 7.488c-5.305-.34-10.305-2.6-14.064-6.36-3.683-3.722-5.934-8.624-6.355-13.843l5.28-.764 1.142 4.517c.082.416.035.846-.134 1.234L6.48 9.12l.12.197c.876 1.498 1.934 2.883 3.149 4.123 1.218 1.216 2.576 2.283 4.046 3.178l.216.139 2.554-1.1c.387-.183.823-.237 1.243-.153l4.2.96-.576 5.573z" transform="translate(-1140.000000, -933.000000) translate(202.000000, 202.000000) translate(0.000000, 584.000000) translate(938.000000, 0.000000) translate(0.000000, 147.000000)"/>
                        </g>
                    </g>
                </g>
            </g>
        </g>
    </g>
</svg>
