<svg xmlns="http://www.w3.org/2000/svg" width="23" height="24" viewBox="0 0 23 24">
    <g fill="none" fill-rule="evenodd">
        <g fill="#505050" fill-rule="nonzero">
            <g>
                <g>
                    <path d="M11.2 0C5.014 0 0 5.008 0 11.186s5.014 11.186 11.2 11.186c6.186 0 11.2-5.008 11.2-11.186 0-2.967-1.18-5.812-3.28-7.91C17.02 1.18 14.17 0 11.2 0zm.467.932c1.207.053 2.395.32 3.509.788l-3.51 3.51V.931zm0 5.593l4.4-4.386c.742.401 1.431.89 2.054 1.46l-6.454 6.459V6.525zm7.112-2.246c.596.652 1.106 1.38 1.516 2.162l-4.293 4.279h-3.677l6.454-6.441zm1.936 3.062c.442 1.075.696 2.218.752 3.379h-4.144l3.392-3.38zM10.733.932V10.99l-7.116 7.098C.93 15.15.19 10.926 1.714 7.251c1.525-3.676 5.04-6.138 9.02-6.319zM11.2 21.44c-2.563.001-5.033-.959-6.92-2.69l7.107-7.098h10.08c0 .155-.011.31-.033.466-.483 5.284-4.922 9.327-10.234 9.322z" transform="translate(-16.000000, -760.000000) translate(0.000000, 107.000000) translate(16.000000, 653.174242)"/>
                </g>
            </g>
        </g>
    </g>
</svg>
