<svg xmlns="http://www.w3.org/2000/svg" xmlns:xlink="http://www.w3.org/1999/xlink" width="40" height="39" viewBox="0 0 40 39">
    <defs>
        <linearGradient id="7665zvokdc" x1="50%" x2="50%" y1="0%" y2="100%">
            <stop offset="0%" stop-color="#F9D423"/>
            <stop offset="100%" stop-color="#FEBC40"/>
        </linearGradient>
        <linearGradient id="mkf8fuc0ld" x1="50%" x2="50%" y1="0%" y2="100%">
            <stop offset="0%" stop-color="#F9D423"/>
            <stop offset="100%" stop-color="#FEBC40"/>
        </linearGradient>
        <ellipse id="xqwqp1xgib" cx="17.829" cy="17.5" rx="17.829" ry="17.5"/>
        <filter id="rznaw51lea" width="113.3%" height="113.6%" x="-6.7%" y="-3.9%" filterUnits="objectBoundingBox">
            <feMorphology in="SourceAlpha" operator="dilate" radius=".375" result="shadowSpreadOuter1"/>
            <feOffset dy="1" in="shadowSpreadOuter1" result="shadowOffsetOuter1"/>
            <feGaussianBlur in="shadowOffsetOuter1" result="shadowBlurOuter1" stdDeviation=".5"/>
            <feComposite in="shadowBlurOuter1" in2="SourceAlpha" operator="out" result="shadowBlurOuter1"/>
            <feColorMatrix in="shadowBlurOuter1" values="0 0 0 0 0.443137255 0 0 0 0 0.207843137 0 0 0 0 0.819607843 0 0 0 0.4 0"/>
        </filter>
    </defs>
    <g fill="none" fill-rule="evenodd">
        <g>
            <g>
                <g>
                    <g>
                        <g opacity=".2" transform="translate(-1109.000000, -195.000000) translate(1095.000000, 0.000000) translate(16.000000, 186.000000) translate(0.000000, 10.000000)">
                            <use fill="#000" filter="url(#rznaw51lea)" xlink:href="#xqwqp1xgib"/>
                            <use fill="#F7F7F7" stroke="url(#7665zvokdc)" stroke-width=".75" xlink:href="#xqwqp1xgib"/>
                        </g>
                        <path fill="url(#mkf8fuc0ld)" d="M.645.072L9.994 6.16c.03.019.076.053.117.108.024.033.08.12.077.243-.001.026-.006.117-.07.21-.042.063-.093.1-.124.12L.632 12.937c-.024.015-.059.033-.102.046-.048.015-.09.017-.12.017-.039 0-.14-.006-.236-.074-.135-.093-.165-.233-.17-.264-.006-.038-.01-.118.028-.21.045-.105.123-.163.155-.184l8.857-5.77L.818 1.143v9.541c0 .219-.184.399-.407.4-.224 0-.409-.181-.409-.4V.4c0-.037.006-.149.089-.25C.208.005.385 0 .411 0c.032 0 .078.003.13.021.046.015.08.035.104.051" transform="translate(-1109.000000, -195.000000) translate(1095.000000, 0.000000) translate(16.000000, 186.000000) translate(0.000000, 10.000000) translate(14.263291, 11.000000)"/>
                    </g>
                </g>
            </g>
        </g>
    </g>
</svg>
