<svg xmlns="http://www.w3.org/2000/svg" width="23" height="19" viewBox="0 0 23 19">
    <g fill="none" fill-rule="evenodd">
        <g fill="#505050" fill-rule="nonzero">
            <g>
                <g>
                    <g>
                        <path d="M7.933 0C6.645 0 5.6 1.045 5.6 2.333V2.8h-.467C3.845 2.8 2.8 3.845 2.8 5.133V5.6h-.275C1.13 5.603.003 6.731 0 8.125v9.608h14.275c1.394-.002 2.522-1.131 2.525-2.524v-.276h.467c1.288 0 2.333-1.044 2.333-2.333v-.467h.467c.619 0 1.212-.245 1.65-.683.437-.438.683-1.031.683-1.65V0H7.933zm7.934 15.209c0 .879-.713 1.591-1.592 1.591H.933V8.125c0-.88.713-1.592 1.592-1.592h13.342v8.676zm2.8-2.609c0 .773-.627 1.4-1.4 1.4H16.8V5.6H3.733v-.467c0-.773.627-1.4 1.4-1.4h13.534V12.6zm2.8-2.8c0 .773-.627 1.4-1.4 1.4H19.6V2.8H6.533v-.467c0-.773.627-1.4 1.4-1.4h13.534V9.8z" transform="translate(-16.000000, -205.000000) translate(0.000000, 107.000000) translate(16.000000, 97.876263) translate(0.000000, 1.000000)"/>
                    </g>
                </g>
            </g>
        </g>
    </g>
</svg>
