<svg xmlns="http://www.w3.org/2000/svg" width="19" height="25" viewBox="0 0 19 25">
    <g fill="none" fill-rule="evenodd">
        <g fill="#0A7AFF" fill-rule="nonzero">
            <g>
                <g>
                    <g>
                        <g>
                            <path d="M16.852 19.622l-3.525-1.961c-.366-.185-.596-.56-.594-.97l-.002-.982c.757-.992 1.31-2.123 1.63-3.33.007-.03.01-.06.01-.091v-.82H15.6c.678 0 1.228-.55 1.229-1.228V7.782c-.002-.519-.33-.98-.82-1.153v-.075C16.01 2.934 13.076 0 9.457 0c-3.62 0-6.554 2.934-6.554 6.554v.075c-.49.172-.817.634-.819 1.153v2.458c.002.519.33.98.82 1.153v.895c0 .904.733 1.637 1.638 1.638h.563c.299.628.659 1.224 1.075 1.78v.944c.002.397-.215.763-.565.951l-3.652 1.995c-1.19.645-1.929 1.89-1.927 3.243v1.327c0 .109.043.213.12.29.077.077.181.12.29.12h18.022c.226 0 .41-.183.41-.41v-1.245c.006-1.395-.779-2.673-2.025-3.299zm-.842-11.84v2.458c0 .226-.184.41-.41.41h-1.229V7.373H15.6c.226 0 .41.183.41.41zM3.312 10.65c-.226 0-.41-.184-.41-.41V7.782c0-.226.184-.409.41-.41h1.229v3.278H3.312zm1.229 2.457c-.452 0-.819-.367-.82-.819v-.82h.82v.82c0 .03.003.062.01.092.059.246.131.489.217.727H4.54zm-.002-6.553h-.817C3.725 3.388 6.29.823 9.456.819c3.166.004 5.73 2.57 5.734 5.735h-.817c.074-.962-.234-1.914-.858-2.65-.841-.96-2.207-1.446-4.059-1.446-1.852 0-3.218.486-4.059 1.446-.624.736-.932 1.688-.858 2.65zM.854 23.757v-.918c-.001-1.052.574-2.021 1.5-2.524l3.65-1.993c.615-.332.996-.974.994-1.672v-.944c.001-.179-.057-.352-.166-.494-.304-.407-.576-.837-.813-1.286h1.874c.173.49.634.818 1.153.82h1.23c.678 0 1.228-.55 1.228-1.23 0-.678-.55-1.228-1.229-1.228H9.046c-.519.002-.98.33-1.153.82H5.641c-.114-.283-.208-.572-.281-.867V6.554c0-.018-.001-.036-.004-.054-.06-.745.176-1.484.657-2.056.679-.775 1.837-1.167 3.443-1.167 1.6 0 2.756.39 3.436 1.158.481.576.72 1.317.664 2.065-.003.018-.004.036-.004.054v5.687c-.295 1.076-.795 2.085-1.472 2.97-.109.143-.167.317-.166.495v.985c-.005.714.393 1.37 1.03 1.693l3.525 1.962c.976.486 1.592 1.485 1.589 2.575v.836H.854zm7.783-10.24c0-.226.183-.41.41-.41h1.228c.226 0 .41.184.41.41 0 .226-.184.41-.41.41H9.046c-.226 0-.409-.184-.41-.41z" transform="translate(-1365.000000, -348.000000) translate(202.000000, 202.000000) translate(938.000000, 0.000000) translate(199.000000, 146.000000) translate(26.000000, 0.000000)"/>
                        </g>
                    </g>
                </g>
            </g>
        </g>
    </g>
</svg>
