<svg xmlns="http://www.w3.org/2000/svg" width="23" height="17" viewBox="0 0 23 17">
    <g fill="none" fill-rule="evenodd">
        <g fill="#505050" fill-rule="nonzero">
            <g>
                <g>
                    <g>
                        <path d="M4.64 5.428C4.964 7.232 6.164 8.4 7.696 8.4s2.708-1.136 3.056-2.968c.056-.28.324-1.696.34-2.04.039-.865-.281-1.707-.884-2.328C9.544.381 8.63-.002 7.677.002 6.724.007 5.814.4 5.156 1.088c-.594.618-.905 1.456-.856 2.312.02.348.308 1.86.34 2.028zm1.1-3.792c.51-.527 1.212-.825 1.946-.825s1.436.298 1.946.825c.45.464.689 1.094.66 1.74 0 .22-.204 1.3-.328 1.924-.212 1.1-.92 2.3-2.268 2.3-1.348 0-2.096-1.248-2.272-2.32-.12-.628-.312-1.708-.328-1.932-.032-.635.201-1.255.644-1.712zM12.584 10.288l-4.888-.656-4.86.644c-1.2.236-2.508 1.072-2.676 2.4L0 16h15.508l-.192-3.164c-.084-1.308-1.1-2.26-2.732-2.548zM.74 15.2l.212-2.42c.116-.932 1.136-1.544 2-1.716l4.74-.624 4.764.636c.592.104 1.976.492 2.06 1.808l.144 2.316H.74zM13.572 6.984c.268 1.468 1.26 2.4 2.524 2.4s2.236-.924 2.524-2.4c.044-.224.26-1.344.272-1.624.032-.701-.228-1.384-.716-1.888-.548-.566-1.302-.886-2.09-.886-.788 0-1.542.32-2.09.886-.483.501-.735 1.181-.696 1.876.016.3.228 1.42.272 1.636zm1.008-2.94c.397-.407.941-.637 1.51-.637.569 0 1.113.23 1.51.637.337.347.517.817.496 1.3 0 .16-.156.98-.26 1.508-.08.4-.444 1.764-1.74 1.764-1.044 0-1.6-.908-1.736-1.764-.096-.492-.248-1.34-.26-1.512-.03-.48.142-.95.476-1.296h.004zM17.6 16h4.8l-.044-3.008c-.084-1.084-.92-1.876-2.264-2.116l-3.948-.476-.096.8 3.928.472c.452.08 1.508.376 1.6 1.376l.096 2.152H17.6v.8z" transform="translate(-16.000000, -720.000000) translate(0.000000, 107.000000) translate(16.000000, 610.228535) translate(0.000000, 3.000000)"/>
                    </g>
                </g>
            </g>
        </g>
    </g>
</svg>
