<svg xmlns="http://www.w3.org/2000/svg" width="28" height="21" viewBox="0 0 28 21">
    <g fill="none" fill-rule="evenodd">
        <g fill="#000" fill-rule="nonzero">
            <g>
                <g>
                    <path d="M5.8 6.776c.405 2.253 1.905 3.71 3.82 3.71 1.915 0 3.385-1.417 3.82-3.705.07-.35.405-2.117.425-2.546.048-1.08-.351-2.131-1.105-2.907-.83-.852-1.973-1.33-3.164-1.325-1.191.005-2.329.495-3.151 1.355-.743.772-1.13 1.818-1.07 2.887.025.434.385 2.322.425 2.531zm1.375-4.734c.638-.658 1.515-1.03 2.433-1.03.917 0 1.794.372 2.432 1.03.563.58.861 1.366.825 2.173 0 .274-.255 1.623-.41 2.402-.265 1.373-1.15 2.871-2.835 2.871S7 7.93 6.78 6.592c-.15-.784-.39-2.133-.41-2.412-.04-.793.251-1.568.805-2.138zM15.73 12.844l-6.11-.82-6.075.805C2.045 13.123.41 14.167.2 15.825l-.2 4.15h19.385l-.24-3.95c-.105-1.633-1.375-2.822-3.415-3.181zM.925 18.976l.265-3.021c.145-1.164 1.42-1.928 2.5-2.142l5.925-.78 5.955.795c.74.13 2.47.614 2.575 2.257l.18 2.891H.925zM16.965 8.719c.335 1.833 1.575 2.996 3.155 2.996 1.58 0 2.795-1.153 3.155-2.996.055-.28.325-1.678.34-2.027.04-.876-.284-1.728-.895-2.357-.685-.707-1.628-1.107-2.612-1.107-.985 0-1.928.4-2.613 1.107-.603.626-.918 1.474-.87 2.342.02.374.285 1.772.34 2.042zm1.26-3.67c.496-.509 1.177-.796 1.887-.796.711 0 1.392.287 1.888.796.422.432.646 1.02.62 1.623 0 .2-.195 1.223-.325 1.882-.1.5-.555 2.202-2.175 2.202-1.305 0-2-1.133-2.17-2.202-.12-.614-.31-1.673-.325-1.887-.038-.6.178-1.186.595-1.618h.005zM22 19.975h6l-.055-3.756c-.105-1.353-1.15-2.342-2.83-2.641l-4.935-.594-.12.998 4.91.59c.565.1 1.885.469 2 1.717l.12 2.687H22v.999z" transform="translate(-15.000000, -249.000000) translate(0.000000, 107.000000) translate(15.000000, 142.819444)"/>
                </g>
            </g>
        </g>
    </g>
</svg>
