<svg xmlns="http://www.w3.org/2000/svg" width="23" height="24" viewBox="0 0 23 24">
    <g fill="none" fill-rule="evenodd">
        <g fill="#505050" fill-rule="nonzero">
            <g>
                <g>
                    <path d="M11.04 0C4.943 0 0 4.937 0 11.026c0 6.09 4.943 11.026 11.04 11.026 6.097 0 11.04-4.936 11.04-11.026 0-2.924-1.163-5.729-3.234-7.797C16.776 1.162 13.968 0 11.04 0zm0 .919c3.811.003 7.297 2.144 9.02 5.54 1.722 3.395 1.388 7.469-.864 10.54-.336-1.103-1.256-1.99-2.636-2.426l-5.52-1.03-5.451 1.025c-1.278.256-2.315 1.188-2.705 2.43-2.252-3.07-2.586-7.144-.863-10.54C3.743 3.064 7.229.923 11.04.919zm0 20.214c-2.788.001-5.452-1.15-7.36-3.179v-.115c0-1.378 1.1-2.118 2.107-2.37l5.253-.988 5.249.978c.653.207 2.111.846 2.111 2.376v.12c-1.908 2.029-4.572 3.18-7.36 3.178z" transform="translate(-16.000000, -669.000000) translate(0.000000, 107.000000) translate(16.000000, 562.289141)"/>
                    <path d="M7.728 8.688c.354 1.98 1.656 3.257 3.312 3.257s2.935-1.245 3.312-3.248c.06-.303.35-1.838.363-2.224.044-.953-.307-1.882-.97-2.568-.713-.736-1.696-1.15-2.721-1.146-1.026.004-2.005.427-2.712 1.169-.658.681-1.003 1.605-.952 2.55.028.381.336 2.03.368 2.21zm1.251-4.135c.536-.557 1.276-.872 2.05-.872.773 0 1.513.315 2.049.872.488.501.749 1.18.722 1.879 0 .239-.22 1.41-.35 2.09-.23 1.213-.984 2.504-2.41 2.504-1.426 0-2.199-1.346-2.406-2.5-.129-.684-.354-1.855-.354-2.094-.039-.695.215-1.375.7-1.875v-.004z" transform="translate(-16.000000, -669.000000) translate(0.000000, 107.000000) translate(16.000000, 562.289141)"/>
                </g>
            </g>
        </g>
    </g>
</svg>
